<?xml version="1.0" encoding="UTF-8"?>
<svg version="1.1" xmlns="http://www.w3.org/2000/svg" width="409" height="405">
<path d="M0 0 C134.97 0 269.94 0 409 0 C409 133.65 409 267.3 409 405 C274.03 405 139.06 405 0 405 C0 271.35 0 137.7 0 0 Z " fill="#493F0B" transform="translate(0,0)"/>
<path d="M0 0 C134.97 0 269.94 0 409 0 C409 133.65 409 267.3 409 405 C274.03 405 139.06 405 0 405 C0 271.35 0 137.7 0 0 Z M112 30 C111.39414063 30.32226562 110.78828125 30.64453125 110.1640625 30.9765625 C97.4543428 37.8031805 85.95373925 45.82597809 75.44140625 55.7109375 C73.36553688 57.65727262 71.24689349 59.49142453 69.0625 61.3125 C42.51484177 84.55524568 24.45802553 118.38566601 15 152 C14.73445312 152.90363281 14.46890625 153.80726563 14.1953125 154.73828125 C0.57498439 204.37525017 10.96078466 257.4490196 35 302 C38.00930292 307.24183434 41.37600015 312.16753071 45 317 C45.43135254 317.58249512 45.86270508 318.16499023 46.30712891 318.76513672 C78.7254653 362.23813766 125.45621234 389.87232762 179 398 C210.58949096 402.16438554 246.73697768 399.18249677 276 386 C277.51501435 385.35663305 279.03069902 384.71484339 280.546875 384.07421875 C301.13261914 375.24170632 319.24595669 364.29177426 335.73828125 349.07421875 C337.78324667 347.19878414 339.87619475 345.40967467 342 343.625 C363.72595808 324.49576998 379.16294759 297.95167339 389 271 C389.30647461 270.27659424 389.61294922 269.55318848 389.92871094 268.80786133 C398.76270977 247.87430427 401.12548729 224.80036185 401.25 202.3125 C401.25950684 201.01739502 401.26901367 199.72229004 401.27880859 198.38793945 C401.2491645 189.75986215 400.4449005 181.50149604 399 173 C398.77304443 171.61083374 398.77304443 171.61083374 398.54150391 170.19360352 C392.48633361 134.19822669 376.97785341 101.53951094 353 74 C352.51499023 73.44054687 352.02998047 72.88109375 351.53027344 72.3046875 C323.40469172 40.11673772 283.32131079 16.94827491 241 10 C239.31133275 9.63029179 237.62371032 9.25575717 235.9375 8.875 C193.92347075 0.58676947 149.26651809 10.07382094 112 30 Z " fill="#241E09" transform="translate(0,0)"/>
<path d="M0 0 C0.58249512 0.43135254 1.16499023 0.86270508 1.76513672 1.30712891 C45.23813766 33.7254653 72.87232762 80.45621234 81 134 C83.71858021 154.30468198 83.01374927 175.93125367 79 196 C78.81775879 196.9266748 78.63551758 197.85334961 78.44775391 198.80810547 C76.21085808 209.93278453 73.60243213 220.59031057 69 231 C68.35637827 232.52066724 67.71318369 234.04151531 67.0703125 235.5625 C58.2309467 256.14067254 47.28941279 274.24851598 32.07421875 290.73828125 C30.19878414 292.78324667 28.40967467 294.87619475 26.625 297 C7.49576998 318.72595808 -19.04832661 334.16294759 -46 344 C-46.72558105 344.30647461 -47.45116211 344.61294922 -48.19873047 344.92871094 C-76.71256093 356.9363348 -113.74668295 360.03702043 -144 354 C-145.64404466 353.7146303 -147.28862624 353.43234482 -148.93359375 353.15234375 C-184.10349829 347.01404946 -216.08672079 331.43261161 -243 308 C-243.55945313 307.51499023 -244.11890625 307.02998047 -244.6953125 306.53027344 C-276.87846015 278.40888778 -300.06077101 238.31878284 -307 196 C-307.36936491 194.29043943 -307.74385761 192.58197342 -308.125 190.875 C-317.68458072 142.38475906 -303.66733882 90.69366638 -277 50 C-250.00365973 10.87984874 -210.73961531 -17.13029835 -165 -30 C-163.64455078 -30.39832031 -163.64455078 -30.39832031 -162.26171875 -30.8046875 C-108.48175885 -45.56184764 -44.60903896 -33.45352878 0 0 Z M-181 10 C-181.64533691 10.29245605 -182.29067383 10.58491211 -182.95556641 10.88623047 C-222.44024243 29.08251078 -253.12116013 62.63479179 -268.48657227 103.25854492 C-283.27943385 144.26887976 -281.1060275 190.12171725 -262.77197266 229.64746094 C-255.00622106 245.70956133 -245.82440998 259.71771814 -233.42089844 272.52783203 C-231.98663861 274.0138435 -230.57542224 275.51960083 -229.1640625 277.02734375 C-201.36694639 306.26669657 -161.06179881 322.78790442 -121.07421875 324.31640625 C-74.09870133 325.41585325 -31.63772673 308.78638339 2.40234375 276.53125 C25.11194012 254.4021997 40.20427182 224.78189647 47 194 C47.23082275 193.0114502 47.23082275 193.0114502 47.46630859 192.00292969 C56.48223397 152.48880915 47.53804301 109.83322661 27.12109375 75.3671875 C20.7517611 65.25601855 13.73545093 56.05928171 5.42089844 47.47216797 C3.98663861 45.9861565 2.57542224 44.48039917 1.1640625 42.97265625 C-22.95085146 17.60655443 -58.23831567 0.64170026 -93 -3 C-94.34384766 -3.16435547 -94.34384766 -3.16435547 -95.71484375 -3.33203125 C-124.80259989 -6.39175314 -154.33037083 -2.10471737 -181 10 Z " fill="#E3C666" transform="translate(319,43)"/>
<path d="M0 0 C15.63375 -0.061875 31.2675 -0.12375 47.375 -0.1875 C52.29583496 -0.21481201 57.21666992 -0.24212402 62.28662109 -0.27026367 C68.33520508 -0.28381348 68.33520508 -0.28381348 71.17446899 -0.28633118 C73.14071698 -0.29091217 75.10695698 -0.3014096 77.07315063 -0.31672668 C80.06632944 -0.33886132 83.05899705 -0.34171219 86.05224609 -0.34057617 C87.34731866 -0.35676766 87.34731866 -0.35676766 88.66855431 -0.37328625 C97.56241093 -0.32845592 105.14489432 1.34779254 111.52734375 7.79296875 C115.50131607 13.74865671 116.45566226 19.5871844 116.3984375 26.55859375 C116.40130768 27.34718277 116.40417786 28.13577179 116.40713501 28.94825745 C116.40916283 30.60459111 116.40372337 32.26094943 116.39111328 33.91723633 C116.37506201 36.42780092 116.39099389 38.93675074 116.41015625 41.44726562 C116.43465421 59.69427415 116.43465421 59.69427415 110.75 67.3125 C104.91344742 73.01640366 101.21229096 74.3296059 93.125 74.3125 C86.18344965 74.18344965 86.18344965 74.18344965 85 73 C82.71011219 72.84111908 80.41556559 72.74861927 78.12109375 72.68359375 C77.09110008 72.6524221 77.09110008 72.6524221 76.04029846 72.62062073 C73.83947065 72.55505857 71.63852025 72.49620985 69.4375 72.4375 C67.94855486 72.39432108 66.45962227 72.350707 64.97070312 72.30664062 C61.31393447 72.1993707 57.65702682 72.09812228 54 72 C54 72.66 54 73.32 54 74 C41.46 74 28.92 74 16 74 C16 87.86 16 101.72 16 116 C10.72 116 5.44 116 0 116 C0 77.72 0 39.44 0 0 Z " fill="#D0AA35" transform="translate(69,149)"/>
<path d="M0 0 C0.73583817 -0.0049649 1.47167633 -0.00992981 2.22981262 -0.01504517 C4.64898639 -0.02957417 7.06809457 -0.03645352 9.48730469 -0.04199219 C10.73458973 -0.04623325 10.73458973 -0.04623325 12.00707245 -0.05056 C16.40820123 -0.06551578 20.80929755 -0.07476781 25.21044922 -0.07910156 C29.73379135 -0.08457838 34.2568313 -0.10860004 38.78007889 -0.13707352 C42.27873577 -0.15578884 45.77732117 -0.16091022 49.27602386 -0.16243744 C50.94242757 -0.16544485 52.60883061 -0.17340798 54.27518463 -0.18662262 C74.24153646 -0.33365155 74.24153646 -0.33365155 81.84667969 4.80957031 C82.36230469 5.37933594 82.87792969 5.94910156 83.40917969 6.53613281 C83.94542969 7.10074219 84.48167969 7.66535156 85.03417969 8.24707031 C89.33019367 14.22731705 88.56515992 20.06403241 88.40917969 27.16113281 C83.12917969 27.16113281 77.84917969 27.16113281 72.40917969 27.16113281 C72.21386719 25.14290365 72.01855469 23.12467448 71.82324219 21.10644531 C71.5454322 18.93445036 71.5454322 18.93445036 69.40917969 17.16113281 C66.92061056 16.9628991 64.54333832 16.88832593 62.05371094 16.90234375 C60.91692398 16.89708679 60.91692398 16.89708679 59.75717163 16.89172363 C57.24524855 16.88290152 54.73360577 16.88875707 52.22167969 16.89550781 C50.48054958 16.8941613 48.73941983 16.89222088 46.99829102 16.88970947 C43.34648057 16.88675756 39.69476785 16.89105798 36.04296875 16.90039062 C31.35510987 16.91178522 26.66747999 16.9052261 21.97962952 16.8932457 C18.38348659 16.88602889 14.78739821 16.88831419 11.19125366 16.89350128 C9.46243259 16.89483828 7.73360661 16.89318832 6.00479126 16.88854218 C3.59127628 16.88347985 1.17813545 16.89118282 -1.23535156 16.90234375 C-2.31388901 16.89627106 -2.31388901 16.89627106 -3.41421509 16.89007568 C-7.45078397 16.81148682 -7.45078397 16.81148682 -10.59082031 19.16113281 C-11.05185105 23.62268089 -10.91480825 28.1160392 -10.90332031 32.59863281 C-10.91943359 33.85224609 -10.93554688 35.10585937 -10.95214844 36.39746094 C-10.95279297 37.59693359 -10.9534375 38.79640625 -10.95410156 40.03222656 C-10.95708252 41.13493896 -10.96006348 42.23765137 -10.96313477 43.3737793 C-10.79844296 46.0884783 -10.79844296 46.0884783 -9.54364014 47.81427002 C-6.54890498 49.8797434 -3.4815794 49.55042265 0.02661133 49.49829102 C0.8010257 49.49884491 1.57544006 49.4993988 2.37332153 49.49996948 C4.05608966 49.49970949 5.73886674 49.49282343 7.42158699 49.48012733 C10.0922141 49.46175669 12.76205634 49.46441688 15.432724 49.47319031 C23.02615351 49.49499904 30.61928602 49.4842383 38.21264648 49.44604492 C42.85885632 49.42415454 47.50429738 49.43158032 52.15048027 49.45650291 C53.91456863 49.46007963 55.67871845 49.45252484 57.44270515 49.43325233 C68.52721389 49.31458519 76.77715283 49.67251852 85.13868713 57.85324097 C90.22088239 63.64228354 89.08132055 72.52978116 88.95117188 79.76098633 C88.90921856 82.22135318 88.91012088 84.67898288 88.91699219 87.13964844 C88.90650019 88.72104745 88.89356201 90.30243251 88.87792969 91.88378906 C88.87762756 92.97313499 88.87762756 92.97313499 88.87731934 94.08448792 C88.73078312 100.47935602 87.24302128 105.03773729 83.03417969 109.91113281 C77.18362566 114.92589341 72.9686134 116.31297926 65.41455078 116.35400391 C64.588302 116.3621814 63.76205322 116.37035889 62.9107666 116.37878418 C60.16805752 116.40365581 57.42540039 116.42016192 54.68261719 116.43457031 C53.74563618 116.43989399 52.80865517 116.44521767 51.84328079 116.45070267 C46.88039213 116.47744656 41.91752868 116.49681433 36.95458984 116.51123047 C31.836639 116.52784851 26.71933583 116.57259879 21.60162926 116.62360191 C17.66040338 116.65732505 13.71932995 116.66881366 9.77797318 116.67445755 C7.89217831 116.68115991 6.00639312 116.69635549 4.12073898 116.72034836 C1.47335554 116.75210143 -1.17229898 116.75202138 -3.81982422 116.74462891 C-4.59208344 116.76103424 -5.36434265 116.77743958 -6.16000366 116.79434204 C-13.17914013 116.71454619 -17.94262916 113.73775123 -22.90332031 108.91113281 C-26.5274825 103.00509072 -28.16622201 97.06595324 -27.59082031 90.16113281 C-26.59082031 89.16113281 -26.59082031 89.16113281 -23.21191406 89.06347656 C-21.81734954 89.07014912 -20.42280289 89.08210749 -19.02832031 89.09863281 C-18.31740234 89.10314453 -17.60648438 89.10765625 -16.87402344 89.11230469 C-15.11292018 89.12412417 -13.35185995 89.14206018 -11.59082031 89.16113281 C-11.45804688 89.79921875 -11.32527344 90.43730469 -11.18847656 91.09472656 C-11.011875 91.92101562 -10.83527344 92.74730469 -10.65332031 93.59863281 C-10.47929687 94.42234375 -10.30527344 95.24605469 -10.12597656 96.09472656 C-9.78329038 98.13774485 -9.78329038 98.13774485 -8.59082031 99.16113281 C-6.1676404 99.26674312 -3.77281818 99.30791664 -1.34887695 99.30639648 C-0.21230904 99.3114344 -0.21230904 99.3114344 0.94721985 99.3165741 C3.46450416 99.32611203 5.98172216 99.32802863 8.49902344 99.32910156 C10.24158252 99.33231217 11.98414133 99.33567609 13.72669983 99.33918762 C17.38445664 99.34518601 21.04218979 99.3470268 24.69995117 99.34643555 C29.39566898 99.34633388 34.09123571 99.35998718 38.78691769 99.37720776 C42.38734133 99.38830576 45.98772819 99.39035543 49.58816719 99.38982582 C51.31978438 99.39100922 53.05140241 99.39545104 54.78300285 99.40315819 C57.20139127 99.41291392 59.61944848 99.41009772 62.0378418 99.40405273 C63.11873581 99.41248199 63.11873581 99.41248199 64.22146606 99.42108154 C68.26400652 99.51087384 68.26400652 99.51087384 71.40917969 97.16113281 C71.72116508 94.28025358 71.72116508 94.28025358 71.67480469 90.91113281 C71.67738281 89.66332031 71.67996094 88.41550781 71.68261719 87.12988281 C71.67101562 85.16535156 71.67101562 85.16535156 71.65917969 83.16113281 C71.66691406 81.85144531 71.67464844 80.54175781 71.68261719 79.19238281 C71.68003906 77.94457031 71.67746094 76.69675781 71.67480469 75.41113281 C71.6714209 73.68636719 71.6714209 73.68636719 71.66796875 71.92675781 C71.69261645 69.01913449 71.69261645 69.01913449 69.40917969 67.16113281 C66.79107962 66.96460245 64.27734777 66.89153998 61.65820312 66.90576172 C60.85800247 66.90214127 60.05780182 66.89852081 59.23335266 66.89479065 C57.49219657 66.88788713 55.7510188 66.885393 54.00984955 66.88673782 C51.25228697 66.88770099 48.49511645 66.87478472 45.73760986 66.85775757 C37.89623084 66.81142884 30.05488999 66.78688748 22.21337891 66.78027344 C17.41929546 66.77525419 12.62561842 66.75097899 7.83167267 66.71494675 C6.00570365 66.70515416 4.17967867 66.70281385 2.3536911 66.70811844 C-0.20540126 66.71520154 -2.76328718 66.69788059 -5.32226562 66.67529297 C-6.44936195 66.68755165 -6.44936195 66.68755165 -7.59922791 66.70005798 C-12.74781242 66.61941622 -15.58682235 65.33371839 -19.59082031 62.16113281 C-20.92113281 61.10925781 -20.92113281 61.10925781 -22.27832031 60.03613281 C-28.57616017 52.20638596 -28.05386608 42.12333821 -27.96582031 32.53613281 C-27.97742188 31.26511719 -27.98902344 29.99410156 -28.00097656 28.68457031 C-27.96990257 18.74089406 -26.80920216 11.37951466 -19.59082031 4.16113281 C-13.36815797 0.32161775 -7.15529881 0.01171572 0 0 Z " fill="#D0AC36" transform="translate(242.5908203125,148.8388671875)"/>
<path d="M0 0 C0.74664413 -0.00525696 1.49328827 -0.01051392 2.26255798 -0.01593018 C4.73189176 -0.02913966 7.20058148 -0.02038908 9.66992188 -0.01025391 C11.38480758 -0.01227438 13.09969244 -0.01518559 14.8145752 -0.01895142 C18.4091815 -0.02337604 22.00356421 -0.01693934 25.59814453 -0.00292969 C30.20862881 0.01416238 34.81858921 0.00432193 39.42905426 -0.01364708 C42.97035681 -0.02448124 46.51153491 -0.02104029 50.05284119 -0.0132637 C51.75292523 -0.01126067 53.45302053 -0.01372458 55.15309143 -0.02070236 C57.52814723 -0.02831093 59.90235148 -0.0167218 62.27734375 0 C63.33410561 -0.00910904 63.33410561 -0.00910904 64.41221619 -0.0184021 C67.2406048 0.01854012 69.1908213 0.08756673 71.57449341 1.68759155 C73.43566024 4.6617971 73.06419886 8.04899947 73.03710938 11.45068359 C73.03997955 12.23838135 73.04284973 13.0260791 73.04580688 13.83764648 C73.04784709 15.50196044 73.0423202 17.1662984 73.02978516 18.83056641 C73.01372997 21.37896306 73.02963432 23.9257738 73.04882812 26.47412109 C73.04684568 28.0913121 73.04300199 29.70850211 73.03710938 31.32568359 C73.04318207 32.08824463 73.04925476 32.85080566 73.05551147 33.63647461 C72.98643939 38.82857703 72.98643939 38.82857703 71.58122253 41.08976746 C68.61776074 43.07056863 65.61377446 42.7972952 62.16967773 42.76049805 C61.41167374 42.76414871 60.65366974 42.76779938 59.87269592 42.77156067 C57.36607492 42.77966974 54.86009958 42.76605476 52.35351562 42.75146484 C50.61381531 42.75094633 48.87411441 42.75146369 47.13441467 42.75297546 C43.48852797 42.75288573 39.84286233 42.74245263 36.19702148 42.72436523 C31.51702327 42.70166113 26.83734768 42.70113683 22.15730953 42.70788288 C18.56544614 42.71121935 14.97365671 42.70459915 11.38180733 42.69475365 C9.65578155 42.69089706 7.92974755 42.68975532 6.20371819 42.69133949 C3.79507554 42.69170912 1.38685143 42.67911956 -1.02172852 42.6628418 C-2.09790939 42.66655792 -2.09790939 42.66655792 -3.1958313 42.67034912 C-8.132584 42.61692772 -8.132584 42.61692772 -10.36132812 40.38818359 C-10.57344013 37.62657962 -10.66529887 34.96780307 -10.66210938 32.20458984 C-10.6663945 31.3932811 -10.67067963 30.58197235 -10.6750946 29.74607849 C-10.68084212 28.02872654 -10.68133506 26.31135024 -10.67700195 24.59399414 C-10.67384462 21.96442139 -10.69728561 19.33597629 -10.72265625 16.70654297 C-10.72492945 15.03922668 -10.72563264 13.37190737 -10.72460938 11.70458984 C-10.73381912 10.91701797 -10.74302887 10.12944611 -10.7525177 9.31800842 C-10.70691141 3.94313945 -10.70691141 3.94313945 -9.29814148 1.68086243 C-6.36337594 -0.27787525 -3.41020864 -0.0293952 0 0 Z " fill="#85790B" transform="translate(95.361328125,164.61181640625)"/>
<path d="M0 0 C1.28611176 -0.0076664 1.28611176 -0.0076664 2.59820557 -0.01548767 C5.43232203 -0.02938591 8.2661953 -0.02842639 11.1003418 -0.02612305 C13.07325836 -0.03001052 15.0461741 -0.03434529 17.01908875 -0.03910828 C21.15581982 -0.04657148 25.29246555 -0.04627896 29.42919922 -0.04101562 C34.72190652 -0.03522803 40.01426308 -0.05213441 45.30691242 -0.0753603 C49.38278739 -0.09011826 53.45857837 -0.0909664 57.53447533 -0.08785057 C59.48524862 -0.08836298 61.43602672 -0.09358561 63.38677406 -0.10366249 C66.1200576 -0.11604627 68.85266419 -0.10922304 71.5859375 -0.09765625 C72.38670212 -0.10529999 73.18746674 -0.11294373 74.01249695 -0.12081909 C81.33658994 -0.05256698 87.12935067 2.05794069 92.48706055 7.2746582 C98.87832282 16.0310486 98.58705048 22.47574505 98.48706055 33.2746582 C90.89706055 33.2746582 83.30706055 33.2746582 75.48706055 33.2746582 C74.99206055 28.8196582 74.99206055 28.8196582 74.48706055 24.2746582 C49.73706055 24.2746582 24.98706055 24.2746582 -0.51293945 24.2746582 C-0.51293945 32.1946582 -0.51293945 40.1146582 -0.51293945 48.2746582 C1.83831055 48.28924072 4.18956055 48.30382324 6.61206055 48.31884766 C14.39934655 48.36928942 22.1864346 48.4359013 29.973526 48.51037312 C34.69270098 48.55501209 39.41179091 48.59428238 44.13110352 48.62109375 C48.68946784 48.64719143 53.24750376 48.68763927 57.80566406 48.73784447 C59.5406484 48.75446956 61.27568949 48.76601089 63.01074219 48.77227211 C65.44980926 48.78196092 67.88804441 48.81007575 70.3269043 48.84228516 C71.03685043 48.84085007 71.74679657 48.83941498 72.47825623 48.8379364 C80.55675092 48.98783581 86.77200135 51.55959901 92.48706055 57.2746582 C98.74535851 65.91787512 98.76433205 73.48125683 98.8371582 83.81469727 C98.85365762 85.52740118 98.88086782 87.24003795 98.91918945 88.95239258 C99.34462464 108.0858776 99.34462464 108.0858776 91.76000977 116.09936523 C85.60392738 122.11894071 78.30411943 123.73063809 69.97900391 123.6628418 C69.16977982 123.66809875 68.36055573 123.67335571 67.52680969 123.67877197 C64.87663947 123.69187592 62.22707963 123.68326915 59.5769043 123.6730957 C57.72180568 123.67511901 55.86670784 123.67803258 54.01161194 123.68179321 C50.13412868 123.68620338 46.2568535 123.679827 42.37939453 123.66577148 C37.4208291 123.64866842 32.46275049 123.65853619 27.50420284 123.67648888 C23.67709209 123.68735188 19.85009593 123.68386904 16.02298164 123.6761055 C14.19502263 123.67411107 12.36705304 123.67653604 10.53910637 123.68354416 C7.98103302 123.69120155 5.42373832 123.67949548 2.86572266 123.6628418 C2.11799591 123.66891449 1.37026917 123.67498718 0.59988403 123.6812439 C-7.40147875 123.58521314 -12.95610723 120.60610344 -18.7121582 115.1965332 C-24.07995549 109.46777774 -24.83357571 104.42103352 -24.76293945 96.7746582 C-24.68043945 94.2996582 -24.59793945 91.8246582 -24.51293945 89.2746582 C-16.92293945 89.2746582 -9.33293945 89.2746582 -1.51293945 89.2746582 C-1.51293945 92.5746582 -1.51293945 95.8746582 -1.51293945 99.2746582 C23.56706055 98.9446582 48.64706055 98.6146582 74.48706055 98.2746582 C74.48706055 90.3546582 74.48706055 82.4346582 74.48706055 74.2746582 C70.86930664 74.26063965 70.86930664 74.26063965 67.1784668 74.24633789 C59.19158783 74.21250432 51.20496551 74.15691993 43.21829224 74.09075546 C38.37801803 74.05132011 33.53792468 74.01911231 28.69750977 74.00366211 C24.02237378 73.98846954 19.34773513 73.95397795 14.67282104 73.90634918 C12.8931817 73.89156216 11.11347133 73.88361873 9.33377075 73.88277435 C6.83225062 73.8803948 4.33209398 73.85323765 1.83081055 73.82055664 C1.10216293 73.82558701 0.37351532 73.83061737 -0.37721252 73.83580017 C-7.34783128 73.6957644 -13.41608996 70.96706681 -18.32543945 65.9621582 C-19.13948242 65.16358398 -19.13948242 65.16358398 -19.9699707 64.34887695 C-24.23385572 58.61692013 -24.97992686 53.27058396 -24.98168945 46.34106445 C-24.98930298 45.50429672 -24.9969165 44.66752899 -25.00476074 43.80540466 C-25.01551234 42.04477913 -25.01843506 40.28409007 -25.01391602 38.5234375 C-25.01294326 35.84762079 -25.05462696 33.17467154 -25.09887695 30.49926758 C-25.10408478 28.77987245 -25.10677213 27.06046746 -25.10668945 25.34106445 C-25.12308472 24.55123672 -25.13947998 23.761409 -25.15637207 22.94764709 C-25.07081644 15.98203932 -22.31861779 11.29615796 -17.6340332 6.2512207 C-17.07844727 5.80520508 -16.52286133 5.35918945 -15.95043945 4.8996582 C-15.39227539 4.43817383 -14.83411133 3.97668945 -14.2590332 3.5012207 C-9.58056766 0.21478182 -5.64483834 -0.01733264 0 0 Z M-16.51293945 10.2746582 C-22.17657739 18.37075603 -21.72508396 25.82221815 -21.76293945 35.3996582 C-21.78356445 36.68098633 -21.80418945 37.96231445 -21.82543945 39.2824707 C-21.85958374 47.61367697 -21.70739662 55.64973646 -16.8293457 62.7121582 C-16.25055664 63.2277832 -15.67176758 63.7434082 -15.07543945 64.2746582 C-14.49922852 64.8109082 -13.92301758 65.3471582 -13.3293457 65.8996582 C-8.83638806 69.30077883 -5.01085092 69.5689377 0.52856445 69.56176758 C1.33548233 69.56860062 2.14240021 69.57543365 2.97377014 69.58247375 C4.72252244 69.59604495 6.47131425 69.60510902 8.22011185 69.61018372 C10.98512875 69.61847267 13.74981539 69.63897542 16.51473999 69.66271973 C23.37883559 69.71913033 30.24301109 69.75439562 37.10723877 69.79034424 C42.91224079 69.82153798 48.71708146 69.86068061 54.52195358 69.91059875 C57.25079211 69.93072141 59.97950716 69.93899631 62.70840454 69.94689941 C64.37372291 69.95986592 66.03903709 69.97338536 67.7043457 69.98754883 C68.46698227 69.98656693 69.22961884 69.98558502 70.0153656 69.98457336 C75.2593686 70.04696626 75.2593686 70.04696626 77.48706055 72.2746582 C77.74584961 75.0402832 77.74584961 75.0402832 77.75268555 78.5246582 C77.75655273 80.39637695 77.75655273 80.39637695 77.76049805 82.3059082 C77.75276367 83.6155957 77.7450293 84.9252832 77.73706055 86.2746582 C77.74866211 88.23918945 77.74866211 88.23918945 77.76049805 90.2434082 C77.75791992 91.4912207 77.7553418 92.7390332 77.75268555 94.0246582 C77.75042969 95.17450195 77.74817383 96.3243457 77.74584961 97.5090332 C77.48706055 100.2746582 77.48706055 100.2746582 75.48706055 102.2746582 C72.99880768 102.47811846 70.6213608 102.55789496 68.1315918 102.54931641 C66.99480484 102.5569828 66.99480484 102.5569828 65.83505249 102.56480408 C63.32314213 102.57873533 60.81150501 102.57774086 58.29956055 102.57543945 C56.55842994 102.57932412 54.81730029 102.58365831 53.07617188 102.58842468 C49.42436655 102.59589426 45.7726579 102.59559006 42.12084961 102.59033203 C37.4329166 102.5845329 32.74537811 102.60147538 28.05751038 102.6246767 C24.46136142 102.63938191 20.86530821 102.64029021 17.26913452 102.63716698 C15.54030576 102.6376817 13.81147185 102.64294753 12.08267212 102.6529789 C9.66902741 102.66526572 7.25616081 102.65859932 4.8425293 102.64697266 C4.12350433 102.65461639 3.40447937 102.66226013 2.66366577 102.6701355 C0.67529297 102.64888 0.67529297 102.64888 -2.51293945 102.2746582 C-4.8092777 98.83015084 -5.0531043 96.33653538 -5.51293945 92.2746582 C-7.99217746 92.24780725 -10.47112785 92.22789273 -12.95043945 92.2121582 C-13.65749023 92.2037793 -14.36454102 92.19540039 -15.09301758 92.18676758 C-16.89987505 92.17812233 -18.70681548 92.22245809 -20.51293945 92.2746582 C-21.84814433 93.394549 -21.84814433 93.394549 -21.76293945 96.2746582 C-21.61412977 103.53657087 -18.9991028 109.32431751 -14.3059082 114.7668457 C-9.27502201 118.99761274 -4.40938482 119.71292815 1.9675293 119.6628418 C3.2125975 119.67072723 3.2125975 119.67072723 4.4828186 119.67877197 C7.21359336 119.6919245 9.94378034 119.68325082 12.67456055 119.6730957 C14.57975374 119.6751178 16.48494617 119.67803038 18.39013672 119.68179321 C22.37792347 119.68621013 26.36550826 119.67980583 30.35327148 119.66577148 C35.45771867 119.64868002 40.5616926 119.65852458 45.66612244 119.67648888 C49.59870959 119.68734376 53.53118506 119.68387254 57.46377563 119.6761055 C59.3455918 119.67410821 61.2274182 119.67654618 63.10922241 119.68354416 C65.74195104 119.6911867 68.37391958 119.6795154 71.0065918 119.6628418 C71.77975739 119.66891449 72.55292297 119.67498718 73.34951782 119.6812439 C79.6052741 119.60806799 83.52121806 118.01191435 88.17456055 113.8996582 C95.19711116 105.92811426 94.76455391 98.14496745 94.8371582 88.10693359 C94.8536727 86.43589304 94.8809033 84.76492181 94.91918945 83.09423828 C95.72390649 71.29787296 95.72390649 71.29787296 91.22044373 60.95901489 C82.10807172 52.10437448 72.84143627 52.44494239 60.8972168 52.57543945 C59.10264738 52.57180093 57.30808183 52.56509183 55.51353455 52.5554657 C50.81768012 52.53649189 46.12257029 52.55035543 41.42675781 52.57397461 C33.88746769 52.60852036 26.34835397 52.60260821 18.80904961 52.57784081 C16.17917201 52.57546828 13.54997309 52.59327166 10.92018127 52.6131134 C9.31495154 52.61336142 7.70972153 52.61296453 6.10449219 52.61181641 C5.37357864 52.62267776 4.6426651 52.63353912 3.88960266 52.64472961 C0.97212597 52.62792075 -1.02278421 52.61271902 -3.46575928 50.92779541 C-5.08866395 48.3657873 -4.88433812 46.1485379 -4.8762207 43.14575195 C-4.87557617 41.9462793 -4.87493164 40.74680664 -4.87426758 39.51098633 C-4.8581543 38.25737305 -4.84204102 37.00375977 -4.82543945 35.7121582 C-4.82866211 34.45467773 -4.83188477 33.19719727 -4.83520508 31.90161133 C-4.77982003 22.54153878 -4.77982003 22.54153878 -2.51293945 20.2746582 C-0.02437033 20.07642449 2.35290191 20.00185132 4.8425293 20.01586914 C5.60038727 20.0123645 6.35824524 20.00885986 7.1390686 20.00524902 C9.65099168 19.99642691 12.16263446 20.00228246 14.67456055 20.0090332 C16.41569066 20.00768669 18.1568204 20.00574627 19.89794922 20.00323486 C23.54975967 20.00028295 27.20147238 20.00458337 30.85327148 20.01391602 C35.54113036 20.02531061 40.22876025 20.01875149 44.91661072 20.00677109 C48.51275365 19.99955428 52.10884203 20.00183958 55.70498657 20.00702667 C57.43380765 20.00836367 59.16263363 20.00671372 60.89144897 20.00206757 C63.30496396 19.99700524 65.71810478 20.00470821 68.1315918 20.01586914 C68.85061676 20.01182068 69.56964172 20.00777222 70.31045532 20.00360107 C75.25853158 20.04612924 75.25853158 20.04612924 77.48706055 22.2746582 C78.05226058 24.93003193 78.22494253 27.56610533 78.48706055 30.2746582 C83.76706055 30.2746582 89.04706055 30.2746582 94.48706055 30.2746582 C95.09397935 19.43269764 95.09397935 19.43269764 89.7878418 10.43481445 C83.26390432 4.1672203 76.52009361 2.96285405 67.65332031 3.01586914 C66.9155838 3.0123645 66.17784729 3.00885986 65.41775513 3.00524902 C63.00456027 2.99652245 60.59166409 3.00224905 58.1784668 3.0090332 C56.48510177 3.0076838 54.79173712 3.00574097 53.09837341 3.00323486 C49.55887137 3.00029576 46.01947067 3.00454151 42.47998047 3.01391602 C37.96337327 3.02530105 33.44700407 3.01874937 28.93040562 3.00677109 C25.43607317 2.99951214 21.94179628 3.00185902 18.44746208 3.00702667 C16.78303944 3.00835248 15.1186116 3.00675328 13.45419502 3.00206757 C-2.90857966 2.41534837 -2.90857966 2.41534837 -16.51293945 10.2746582 Z " fill="#0B0802" transform="translate(236.512939453125,145.725341796875)"/>
<path d="M0 0 C17.325 -0.0825 34.65 -0.165 52.5 -0.25 C57.96111328 -0.28641602 63.42222656 -0.32283203 69.04882812 -0.36035156 C75.74121094 -0.37841797 75.74121094 -0.37841797 78.87878418 -0.3817749 C81.06013252 -0.38789873 83.2414677 -0.40192873 85.42272949 -0.42230225 C88.7358333 -0.4516882 92.04811303 -0.45562053 95.36132812 -0.45410156 C96.80772045 -0.47569021 96.80772045 -0.47569021 98.28333282 -0.497715 C105.30472819 -0.45477875 110.57043337 1.10946153 115.98828125 5.67578125 C116.42527344 6.21589844 116.86226563 6.75601563 117.3125 7.3125 C117.76238281 7.84488281 118.21226562 8.37726563 118.67578125 8.92578125 C122.80352402 15.39136064 123.45754335 20.71528046 123.43359375 28.24609375 C123.4388356 29.21603775 123.44407745 30.18598175 123.44947815 31.18531799 C123.45587679 33.22843472 123.45458945 35.27158839 123.44604492 37.31469727 C123.43753512 40.42466414 123.46632691 43.53279232 123.49804688 46.64257812 C123.49965923 48.63541612 123.4990807 50.62825734 123.49609375 52.62109375 C123.50732773 53.54216415 123.51856171 54.46323456 123.53013611 55.41221619 C123.45229744 62.69525013 121.66521746 67.94711454 116.8515625 73.4609375 C109.75118544 79.56477041 104.19699727 81.22336468 95 82 C96.03447266 83.21623047 96.03447266 83.21623047 97.08984375 84.45703125 C102.4154741 90.72920732 107.69511821 97.0284277 112.8515625 103.44140625 C115.57652842 106.68659294 118.52952955 109.68271978 121.56640625 112.63671875 C123.70059439 116.15493081 123.23441849 118.92964255 123 123 C99.98414023 124.79048414 99.98414023 124.79048414 93.62109375 120.97265625 C91.38627527 118.10402185 89.72213125 115.19990605 88 112 C86.3440574 109.81274248 84.55163056 107.75531032 82.75 105.6875 C81.56664062 104.27017578 81.56664062 104.27017578 80.359375 102.82421875 C79.11446943 101.33404205 77.86628593 99.846303 76.59179688 98.38134766 C73 94.21238792 73 94.21238792 73 92 C72.34 92 71.68 92 71 92 C70.59587891 91.29117676 70.19175781 90.58235352 69.77539062 89.85205078 C67.5384368 86.00888855 65.41600112 82.68472381 60.93212891 81.41394043 C54.81493706 80.54165523 48.66214711 80.75626979 42.5 80.875 C36.065 80.91625 29.63 80.9575 23 81 C23 94.86 23 108.72 23 123 C15.41 123 7.82 123 0 123 C0 82.41 0 41.82 0 0 Z M4 3 C4 41.28 4 79.56 4 119 C9.28 119 14.56 119 20 119 C20 105.14 20 91.28 20 77 C32.54 77 45.08 77 58 77 C58 76.34 58 75.68 58 75 C62.39675988 75.11797018 66.79328399 75.24219726 71.18969727 75.37231445 C72.68639269 75.41571813 74.18313939 75.45738913 75.67993164 75.49731445 C77.82714312 75.55488616 79.97409521 75.61861716 82.12109375 75.68359375 C83.4145874 75.72025146 84.70808105 75.75690918 86.04077148 75.79467773 C89 76 89 76 90 77 C98.17625988 77.82388333 105.50486587 78.18739007 112.1953125 72.84765625 C119.02585314 65.85448369 120.14958601 59.25370755 120.203125 49.69921875 C120.20882507 48.90401321 120.21452515 48.10880768 120.22039795 47.289505 C120.22981692 45.61106687 120.23636955 43.9326105 120.24023438 42.25415039 C120.24992881 39.70620945 120.28097635 37.15907972 120.3125 34.61132812 C120.31903235 32.97396308 120.32428191 31.33659232 120.328125 29.69921875 C120.3466452 28.57068733 120.3466452 28.57068733 120.36553955 27.4193573 C120.3376452 20.68975226 118.83393957 14.13206182 113.9375 9.1875 C107.21924026 3.1862394 98.7196853 2.55106022 90.05224609 2.65942383 C89.09947092 2.65906222 88.14669575 2.65870062 87.1650486 2.65832806 C84.11762204 2.66054577 81.07076401 2.68329191 78.0234375 2.70703125 C76.12736272 2.71144876 74.23128426 2.71450519 72.33520508 2.71618652 C65.34841382 2.73183806 58.36170117 2.77372185 51.375 2.8125 C27.924375 2.9053125 27.924375 2.9053125 4 3 Z " fill="#080904" transform="translate(65,146)"/>
<path d="M0 0 C0.74664413 -0.00525696 1.49328827 -0.01051392 2.26255798 -0.01593018 C4.73189176 -0.02913966 7.20058148 -0.02038908 9.66992188 -0.01025391 C11.38480758 -0.01227438 13.09969244 -0.01518559 14.8145752 -0.01895142 C18.4091815 -0.02337604 22.00356421 -0.01693934 25.59814453 -0.00292969 C30.20862881 0.01416238 34.81858921 0.00432193 39.42905426 -0.01364708 C42.97035681 -0.02448124 46.51153491 -0.02104029 50.05284119 -0.0132637 C51.75292523 -0.01126067 53.45302053 -0.01372458 55.15309143 -0.02070236 C57.52814723 -0.02831093 59.90235148 -0.0167218 62.27734375 0 C63.33410561 -0.00910904 63.33410561 -0.00910904 64.41221619 -0.0184021 C67.2406048 0.01854012 69.1908213 0.08756673 71.57449341 1.68759155 C73.43566024 4.6617971 73.06419886 8.04899947 73.03710938 11.45068359 C73.03997955 12.23838135 73.04284973 13.0260791 73.04580688 13.83764648 C73.04784709 15.50196044 73.0423202 17.1662984 73.02978516 18.83056641 C73.01372997 21.37896306 73.02963432 23.9257738 73.04882812 26.47412109 C73.04684568 28.0913121 73.04300199 29.70850211 73.03710938 31.32568359 C73.04318207 32.08824463 73.04925476 32.85080566 73.05551147 33.63647461 C72.98643939 38.82857703 72.98643939 38.82857703 71.58122253 41.08976746 C68.61776074 43.07056863 65.61377446 42.7972952 62.16967773 42.76049805 C61.41167374 42.76414871 60.65366974 42.76779938 59.87269592 42.77156067 C57.36607492 42.77966974 54.86009958 42.76605476 52.35351562 42.75146484 C50.61381531 42.75094633 48.87411441 42.75146369 47.13441467 42.75297546 C43.48852797 42.75288573 39.84286233 42.74245263 36.19702148 42.72436523 C31.51702327 42.70166113 26.83734768 42.70113683 22.15730953 42.70788288 C18.56544614 42.71121935 14.97365671 42.70459915 11.38180733 42.69475365 C9.65578155 42.69089706 7.92974755 42.68975532 6.20371819 42.69133949 C3.79507554 42.69170912 1.38685143 42.67911956 -1.02172852 42.6628418 C-2.09790939 42.66655792 -2.09790939 42.66655792 -3.1958313 42.67034912 C-8.132584 42.61692772 -8.132584 42.61692772 -10.36132812 40.38818359 C-10.57344013 37.62657962 -10.66529887 34.96780307 -10.66210938 32.20458984 C-10.6663945 31.3932811 -10.67067963 30.58197235 -10.6750946 29.74607849 C-10.68084212 28.02872654 -10.68133506 26.31135024 -10.67700195 24.59399414 C-10.67384462 21.96442139 -10.69728561 19.33597629 -10.72265625 16.70654297 C-10.72492945 15.03922668 -10.72563264 13.37190737 -10.72460938 11.70458984 C-10.73381912 10.91701797 -10.74302887 10.12944611 -10.7525177 9.31800842 C-10.70691141 3.94313945 -10.70691141 3.94313945 -9.29814148 1.68086243 C-6.36337594 -0.27787525 -3.41020864 -0.0293952 0 0 Z M-7.36132812 5.38818359 C-7.46210933 7.75216828 -7.50106028 10.0862967 -7.49414062 12.45068359 C-7.49509735 13.15717041 -7.49605408 13.86365723 -7.49703979 14.59155273 C-7.49772145 16.08789153 -7.49586817 17.58423326 -7.49169922 19.08056641 C-7.4863507 21.37848517 -7.49164463 23.67620846 -7.49804688 25.97412109 C-7.49738609 27.42464236 -7.49610492 28.87516351 -7.49414062 30.32568359 C-7.49616486 31.01734619 -7.49818909 31.70900879 -7.50027466 32.42163086 C-7.76363546 35.68553997 -7.76363546 35.68553997 -6.36132812 38.38818359 C-4.01879031 38.48311081 -1.70586708 38.51378151 0.63696289 38.50170898 C1.36862671 38.50185501 2.10029053 38.50200104 2.85412598 38.50215149 C5.28363971 38.50145226 7.71307771 38.49365944 10.14257812 38.48583984 C11.82266701 38.4839757 13.50275644 38.48255178 15.18284607 38.48155212 C19.61340831 38.47772667 24.04393797 38.46789615 28.4744873 38.45684814 C33.78582842 38.44484014 39.0971804 38.44023192 44.40853119 38.43439484 C52.48526743 38.4246844 60.56193215 38.40552806 68.63867188 38.38818359 C68.63867188 27.16818359 68.63867188 15.94818359 68.63867188 4.38818359 C55.33300995 4.3591193 55.33300995 4.3591193 42.02734375 4.33935547 C36.60407539 4.33336726 31.18082384 4.32626756 25.75756836 4.31274414 C21.38744357 4.30191445 17.0173368 4.29590659 12.64719963 4.29330635 C10.97616225 4.29145225 9.3051259 4.28783192 7.63409615 4.28245354 C5.30169636 4.27524201 2.96937195 4.2741927 0.63696289 4.2746582 C-0.06074722 4.27106293 -0.75845734 4.26746765 -1.47731018 4.26376343 C-4.69792194 3.99755893 -4.69792194 3.99755893 -7.36132812 5.38818359 Z " fill="#110C03" transform="translate(95.361328125,164.61181640625)"/>
<path d="M0 0 C18.41731201 -1.46070059 18.41731201 -1.46070059 23.859375 1.6171875 C25.87682566 3.9597645 27.42044696 6.34418288 29 9 C30.39120959 10.7497136 31.80948167 12.47815254 33.25 14.1875 C33.98734375 15.10015625 34.7246875 16.0128125 35.484375 16.953125 C37.36110979 19.22618888 39.25975234 21.45712012 41.203125 23.671875 C42.02248535 24.60930542 42.02248535 24.60930542 42.85839844 25.56567383 C43.93391873 26.79202928 45.01511581 28.01343463 46.10253906 29.22924805 C48.62847447 32.11620861 50.27188066 34.23381291 51 38 C34.41605875 40.06479901 34.41605875 40.06479901 29.02001953 36.80322266 C25.48688749 33.62249244 22.84121544 29.79621455 20.23779297 25.84228516 C18.46249602 23.19999901 16.42782118 20.80494258 14.375 18.375 C13.32119141 17.075625 13.32119141 17.075625 12.24609375 15.75 C10.58507072 13.71633006 8.91248724 11.69696603 7.22265625 9.6875 C6.75875488 9.13529785 6.29485352 8.5830957 5.81689453 8.01416016 C4.50337498 6.45328047 3.1873011 4.89455138 1.87109375 3.3359375 C0 1 0 1 0 0 Z " fill="#D0AB35" transform="translate(133,227)"/>
<path d="M0 0 C0.99 0.495 0.99 0.495 2 1 C1.01 1.495 1.01 1.495 0 2 C0 1.34 0 0.68 0 0 Z M9.9921875 0.76953125 C12 1 12 1 15 3 C14.34 3.33 13.68 3.66 13 4 C16.14645401 3.88838822 19.29189157 3.75819443 22.4375 3.625 C23.31599609 3.5940625 24.19449219 3.563125 25.09960938 3.53125 C30.95583327 3.27193381 36.31155423 2.42355815 42 1 C42.495 1.99 42.495 1.99 43 3 C45.5625718 3.02710123 48.12485365 3.04688771 50.6875 3.0625 C51.40873047 3.07087891 52.12996094 3.07925781 52.87304688 3.08789062 C56.74017954 3.10554877 60.22390903 2.75521819 64 2 C64.99 2.33 65.98 2.66 67 3 C68.093125 3.103125 69.18625 3.20625 70.3125 3.3125 C74.41737218 4.07781515 76.73266223 5.44988272 80 8 C80 8.33 80 8.66 80 9 C78.99268326 9.00586624 77.98536652 9.01173248 76.94752502 9.01777649 C67.42882877 9.07512699 57.91035826 9.14795262 48.39189243 9.23571491 C43.49899015 9.28033696 38.60616956 9.31961093 33.71313477 9.34643555 C28.98619239 9.37255017 24.25956578 9.41300982 19.53281975 9.46318626 C17.73446535 9.47979996 15.93605641 9.49134833 14.13763618 9.49761391 C-2.98381857 9.5063647 -2.98381857 9.5063647 -17.3359375 18.1484375 C-19.48676647 20.5416134 -20.83366145 23.01125747 -22 26 C-22.99 26 -23.98 26 -25 26 C-25.37814959 19.46832526 -22.3532228 14.8950113 -18.3203125 9.93359375 C-14.85336766 6.24322358 -12.05241811 4.14827684 -7 3 C-6.01 2.67 -5.02 2.34 -4 2 C-1.66666667 2 0.66666667 2 3 2 C4.87643761 0.12356239 7.49805701 0.82015013 9.9921875 0.76953125 Z " fill="#6A5D0B" transform="translate(235,136)"/>
<path d="M0 0 C4.29 0.99 8.58 1.98 13 3 C13 2.34 13 1.68 13 1 C15.9719385 2.12451727 18.33440687 3.22293791 21 5 C21.33 4.34 21.66 3.68 22 3 C22.598125 3.969375 23.19625 4.93875 23.8125 5.9375 C25.71127509 9.23052042 25.71127509 9.23052042 29 10 C29 10.66 29 11.32 29 12 C29.66 12 30.32 12 31 12 C30.67 12.99 30.34 13.98 30 15 C29.13375 14.38125 28.2675 13.7625 27.375 13.125 C21.06833285 9.1541355 15.66439529 8.69883942 8.41455078 8.68115234 C7.46757828 8.67110672 6.52060577 8.6610611 5.54493713 8.65071106 C2.42840151 8.61992738 -0.68804838 8.6028572 -3.8046875 8.5859375 C-5.97088353 8.567222 -8.13707231 8.5476483 -10.30325317 8.5272522 C-15.99462602 8.47596552 -21.68602249 8.43632114 -27.37750244 8.39910889 C-33.18922758 8.35904761 -39.00085473 8.30796493 -44.8125 8.2578125 C-56.20826446 8.16109417 -67.6040843 8.07667619 -79 8 C-79 7.01 -79 6.02 -79 5 C-67.28653943 -0.03229111 -56.98186696 1.13911777 -45 4 C-45 3.34 -45 2.68 -45 2 C-44.484375 2.165 -43.96875 2.33 -43.4375 2.5 C-40.26636124 3.15049 -37.22781666 3.0620734 -34 3 C-33.67 2.34 -33.34 1.68 -33 1 C-32.13342773 1.32524658 -31.26685547 1.65049316 -30.37402344 1.9855957 C-27.04004606 2.9879601 -24.47822187 3.2446506 -21.015625 3.23046875 C-19.91605469 3.22853516 -18.81648438 3.22660156 -17.68359375 3.22460938 C-15.98396484 3.20624023 -15.98396484 3.20624023 -14.25 3.1875 C-12.52716797 3.1865332 -12.52716797 3.1865332 -10.76953125 3.18554688 C-5.21188432 3.42514625 -5.21188432 3.42514625 0 2 C0 1.34 0 0.68 0 0 Z " fill="#847412" transform="translate(150,137)"/>
<path d="M0 0 C1.31602523 0.61754259 2.62773556 1.24428742 3.9375 1.875 C4.66839844 2.22304687 5.39929688 2.57109375 6.15234375 2.9296875 C8 4 8 4 9 6 C-19.05 6 -47.1 6 -76 6 C-75.67 5.34 -75.34 4.68 -75 4 C-70.74666257 2.71600207 -66.4327711 2.90345534 -62.03515625 2.97265625 C-60.42725099 2.98697103 -58.81934044 3.00069992 -57.21142578 3.01391602 C-55.95026947 3.02637863 -55.95026947 3.02637863 -54.66363525 3.03909302 C-40.9481845 3.16251502 -27.3109997 3.00604221 -13.625 2.0625 C-12.355354 1.97556885 -11.08570801 1.8886377 -9.77758789 1.79907227 C-4.51917056 1.88151091 -4.51917056 1.88151091 0 0 Z " fill="#847313" transform="translate(306,139)"/>
<path d="M0 0 C4.29 0.99 8.58 1.98 13 3 C13 2.34 13 1.68 13 1 C15.9719385 2.12451727 18.33440687 3.22293791 21 5 C21.33 4.34 21.66 3.68 22 3 C22.598125 3.969375 23.19625 4.93875 23.8125 5.9375 C25.71127509 9.23052042 25.71127509 9.23052042 29 10 C29 10.66 29 11.32 29 12 C29.66 12 30.32 12 31 12 C30.67 12.99 30.34 13.98 30 15 C29.13375 14.38125 28.2675 13.7625 27.375 13.125 C21.78630326 9.60619094 16.64330415 8.67817694 10.125 8.375 C9.43664062 8.33632812 8.74828125 8.29765625 8.0390625 8.2578125 C6.35976754 8.16451834 4.67992233 8.08121762 3 8 C3 7.67 3 7.34 3 7 C-3.55159048 5.57717985 -10.10951833 5.97865324 -16.76953125 6.12695312 C-22.56577537 6.19453622 -27.443198 5.67492259 -33 4 C-33 3.01 -33 2.02 -33 1 C-32.13342773 1.32524658 -31.26685547 1.65049316 -30.37402344 1.9855957 C-27.04004606 2.9879601 -24.47822187 3.2446506 -21.015625 3.23046875 C-19.91605469 3.22853516 -18.81648437 3.22660156 -17.68359375 3.22460938 C-15.98396484 3.20624023 -15.98396484 3.20624023 -14.25 3.1875 C-13.10144531 3.18685547 -11.95289063 3.18621094 -10.76953125 3.18554688 C-5.21188432 3.42514625 -5.21188432 3.42514625 0 2 C0 1.34 0 0.68 0 0 Z " fill="#7A6C10" transform="translate(150,137)"/>
<path d="M0 0 C0 0.33 0 0.66 0 1 C2.5625718 1.02710123 5.12485365 1.04688771 7.6875 1.0625 C8.40873047 1.07087891 9.12996094 1.07925781 9.87304688 1.08789062 C13.74017954 1.10554877 17.22390903 0.75521819 21 0 C21.99 0.33 22.98 0.66 24 1 C25.33106622 1.34227417 26.66400079 1.67751743 28 2 C10.98511827 7.67162724 -11.30967055 5.18895251 -29.11035156 5.01391602 C-29.92868973 5.007229 -30.74702789 5.00054199 -31.59016418 4.99365234 C-33.12772313 4.98005778 -34.66525054 4.96172933 -36.2026825 4.93774414 C-39.93992763 4.90288508 -43.36767983 5.09402842 -47 6 C-46.34 6.66 -45.68 7.32 -45 8 C-46.98 8 -48.96 8 -51 8 C-49.2318974 4.68480762 -48.06738631 4.0224621 -44.4375 2.8125 C-32.18578767 0.27140411 -32.18578767 0.27140411 -27 2 C-24.23078841 1.96265586 -21.51064071 1.8597451 -18.75 1.6875 C-18.01136719 1.65205078 -17.27273438 1.61660156 -16.51171875 1.58007812 C-12.88823072 1.36599197 -9.6127027 0.97978372 -6.140625 -0.10546875 C-3 -1 -3 -1 0 0 Z " fill="#77690E" transform="translate(278,138)"/>
<path d="M0 0 C0.33 0 0.66 0 1 0 C1 32.67 1 65.34 1 99 C0.34 98.67 -0.32 98.34 -1 98 C-1 80.18 -1 62.36 -1 44 C-1.33 44 -1.66 44 -2 44 C-2 38.72 -2 33.44 -2 28 C-2.66 28.33 -3.32 28.66 -4 29 C-3.77183594 28.08476562 -3.54367188 27.16953125 -3.30859375 26.2265625 C-3.02113281 25.03804687 -2.73367187 23.84953125 -2.4375 22.625 C-2.14746094 21.44164062 -1.85742188 20.25828125 -1.55859375 19.0390625 C-0.70231572 16.09408801 -0.70231572 16.09408801 -2 14 C-1.72460254 11.65912158 -1.3813074 9.32597511 -1 7 C-0.814375 5.700625 -0.62875 4.40125 -0.4375 3.0625 C-0.2209375 1.5465625 -0.2209375 1.5465625 0 0 Z " fill="#845509" transform="translate(64,145)"/>
<path d="M0 0 C4.29 0.99 8.58 1.98 13 3 C13 2.34 13 1.68 13 1 C15.9719385 2.12451727 18.33440687 3.22293791 21 5 C21.33 4.34 21.66 3.68 22 3 C22.8971875 4.4540625 22.8971875 4.4540625 23.8125 5.9375 C25.71127509 9.23052042 25.71127509 9.23052042 29 10 C29 10.66 29 11.32 29 12 C29.66 12 30.32 12 31 12 C30.67 12.99 30.34 13.98 30 15 C29.13375 14.38125 28.2675 13.7625 27.375 13.125 C24.24371814 11.15345216 21.53615531 10.01033009 18 9 C18.33 8.01 18.66 7.02 19 6 C17.14375 5.814375 17.14375 5.814375 15.25 5.625 C9.46046401 4.98787403 3.73623704 3.99971644 -2 3 C-1.34 2.67 -0.68 2.34 0 2 C0 1.34 0 0.68 0 0 Z " fill="#6B600D" transform="translate(150,137)"/>
<path d="M0 0 C0.66 0 1.32 0 2 0 C2 9.57 2 19.14 2 29 C2.66 28.67 3.32 28.34 4 28 C3.71601983 34.67353409 0.92194468 38.71077185 -3 44 C-3.33 43.34 -3.66 42.68 -4 42 C-3.5361792 41.14325684 -3.0723584 40.28651367 -2.59448242 39.40380859 C-0.65031489 35.25351251 -0.52641392 32.05350136 -0.48828125 27.5390625 C-0.47033005 26.74849457 -0.45237885 25.95792664 -0.43388367 25.1434021 C-0.38003294 22.63732109 -0.34596719 20.13142773 -0.3125 17.625 C-0.27930452 15.91794278 -0.24481281 14.21091024 -0.20898438 12.50390625 C-0.12432148 8.33607347 -0.05739093 4.1682939 0 0 Z " fill="#6A7316" transform="translate(335,215)"/>
<path d="M0 0 C0.33 0 0.66 0 1 0 C1 12.54 1 25.08 1 38 C0.67 38 0.34 38 0 38 C-0.16991244 34.66682397 -0.33533079 31.33343885 -0.5 28 C-0.54769531 27.06542969 -0.59539062 26.13085938 -0.64453125 25.16796875 C-0.9087461 19.77043673 -1.05098037 14.40391896 -1 9 C-1.99 9.495 -1.99 9.495 -3 10 C-2.05066101 6.64566891 -1.10251165 3.30753495 0 0 Z M-3 12 C-2.01 12.495 -2.01 12.495 -1 13 C-1.99 13.495 -1.99 13.495 -3 14 C-3 13.34 -3 12.68 -3 12 Z " fill="#7B590A" transform="translate(211,162)"/>
<path d="M0 0 C1.09054688 0.14695313 1.09054688 0.14695313 2.203125 0.296875 C3.80395189 0.5181275 5.4023481 0.75687906 7 1 C6.67 1.66 6.34 2.32 6 3 C-0.6 3 -7.2 3 -14 3 C-14.33 2.34 -14.66 1.68 -15 1 C-10.0243949 -1.81950955 -5.40713897 -0.77244842 0 0 Z " fill="#8D7B15" transform="translate(94,142)"/>
<path d="M0 0 C-1.53224038 3.44754086 -3.60579501 6.09793334 -6 9 C-6.53625 9.763125 -7.0725 10.52625 -7.625 11.3125 C-8.305625 12.1478125 -8.305625 12.1478125 -9 13 C-9.66 13 -10.32 13 -11 13 C-11.34327479 9.78672286 -11.30215345 8.41124448 -9.35546875 5.76171875 C-8.64003906 5.07722656 -7.92460937 4.39273438 -7.1875 3.6875 C-6.12595703 2.64142578 -6.12595703 2.64142578 -5.04296875 1.57421875 C-3 0 -3 0 0 0 Z " fill="#74620D" transform="translate(221,149)"/>
<path d="M0 0 C0.33 0 0.66 0 1 0 C1 8.58 1 17.16 1 26 C0.34 26.33 -0.32 26.66 -1 27 C-1 21.72 -1 16.44 -1 11 C-1.99 11.495 -1.99 11.495 -3 12 C-2.01 8.04 -1.02 4.08 0 0 Z " fill="#938118" transform="translate(63,162)"/>
<path d="M0 0 C0.66 0.33 1.32 0.66 2 1 C-0.96062956 4.45406781 -3.99955567 6.08717389 -8.02734375 7.984375 C-10.6408323 9.32993346 -12.79439884 11.07009899 -15 13 C-12.636507 7.62101592 -8.42452005 4.10684611 -3.125 1.6875 C-2.42375 1.460625 -1.7225 1.23375 -1 1 C-0.67 0.67 -0.34 0.34 0 0 Z " fill="#5F5409" transform="translate(229,138)"/>
<path d="M0 0 C1.27676177 3.83028531 0.47558027 5.36097903 -0.96484375 8.9921875 C-2.50788902 11.98511303 -4.4641497 13.80683217 -7 16 C-5.88375527 12.56540083 -4.72170019 9.14843505 -3.5 5.75 C-3.2628125 5.08484375 -3.025625 4.4196875 -2.78125 3.734375 C-2 2 -2 2 0 0 Z " fill="#716B13" transform="translate(338,243)"/>
<path d="M0 0 C0 3 0 3 -1.1875 4.6875 C-3.55741722 6.40364695 -5.14025666 6.23187108 -8 6 C-8 5.01 -8 4.02 -8 3 C-5.34771188 1.92474806 -2.71631546 0.90543849 0 0 Z " fill="#7D6D14" transform="translate(79,139)"/>
<path d="M0 0 C-0.99 1.485 -0.99 1.485 -2 3 C-4.64 2.67 -7.28 2.34 -10 2 C-3.72972973 -1.24324324 -3.72972973 -1.24324324 0 0 Z " fill="#6E620B" transform="translate(278,138)"/>
<path d="M0 0 C0.33 0 0.66 0 1 0 C1.33 2.97 1.66 5.94 2 9 C1.01 9.495 1.01 9.495 0 10 C-1.60339848 6.88228073 -2.18974141 5.60988311 -1.125 2.1875 C-0.75375 1.465625 -0.3825 0.74375 0 0 Z " fill="#6F5F0E" transform="translate(210,240)"/>
<path d="M0 0 C0.33 0.66 0.66 1.32 1 2 C0.06553465 4.03144641 -0.93224776 6.03533587 -2 8 C-2.99 8 -3.98 8 -5 8 C-3.8141763 4.62496331 -2.72426311 2.35277269 0 0 Z " fill="#7E6A0E" transform="translate(215,154)"/>
</svg>
